<svg width="28" height="22" viewBox="0 0 28 22" fill="none" xmlns="http://www.w3.org/2000/svg">
<path fill-rule="evenodd" clip-rule="evenodd" d="M25.6667 5.86666H25.2V2.59999C25.1985 1.31199 24.1547 0.268179 22.8667 0.266663H5.13333C3.84533 0.268179 2.80152 1.31199 2.8 2.59999V5.86666H2.33333C1.04533 5.86818 0.00151667 6.91199 0 8.19999V15.6667C0.00151667 16.9547 1.04533 17.9985 2.33333 18H2.8V21.2667C2.8 21.5244 3.00895 21.7334 3.26667 21.7334H4.2C4.39466 21.7335 4.56896 21.6128 4.63727 21.4305L5.9234 18H22.0766L23.3627 21.4305C23.431 21.6128 23.6053 21.7335 23.8 21.7334H24.7333C24.9911 21.7334 25.2 21.5244 25.2 21.2667V18H25.6667C26.9547 17.9985 27.9985 16.9547 28 15.6667V8.19999C27.9985 6.91199 26.9547 5.86818 25.6667 5.86666ZM3.73333 2.59999C3.73333 1.82678 4.36013 1.2 5.13333 1.2H22.8667C23.6399 1.2 24.2667 1.82678 24.2667 2.59999V5.86666H22.8667C22.6089 5.86666 22.4 6.07561 22.4 6.33333V11.4667H5.6V6.33333C5.6 6.07561 5.39105 5.86666 5.13333 5.86666H3.73333V2.59999ZM2.33333 6.79999C1.56012 6.79999 0.933333 7.42678 0.933333 8.19999V11.4667H4.66667V6.79999H2.33333ZM3.8766 20.8H3.73333V18H4.9266L3.8766 20.8ZM24.1234 20.8H24.2667V18H23.0734L24.1234 20.8ZM27.0667 15.6667C27.0667 16.4399 26.4399 17.0667 25.6667 17.0667H2.33333C1.56012 17.0667 0.933333 16.4399 0.933333 15.6667V12.4H27.0667V15.6667ZM23.3333 11.4667H27.0667V8.19999C27.0667 7.42678 26.4399 6.79999 25.6667 6.79999H23.3333V11.4667Z" fill="#363636"/>
</svg>
