<svg width="24" height="24" viewBox="0 0 24 24" fill="none" xmlns="http://www.w3.org/2000/svg">
<path fill-rule="evenodd" clip-rule="evenodd" d="M2.60693 4.14286C2.60693 3.97236 2.67466 3.80885 2.79522 3.68829C2.91578 3.56773 3.07929 3.5 3.24979 3.5H5.17836C5.32176 3.50004 5.46102 3.54802 5.57401 3.63632C5.687 3.72461 5.76723 3.84815 5.80193 3.98729L6.32264 6.07143H21.2498C21.3474 6.07146 21.4438 6.09373 21.5315 6.13655C21.6193 6.17938 21.6961 6.24164 21.7562 6.31859C21.8163 6.39555 21.8581 6.48519 21.8784 6.58071C21.8987 6.67623 21.897 6.77511 21.8733 6.86986L19.9448 14.5841C19.9101 14.7233 19.8298 14.8468 19.7168 14.9351C19.6039 15.0234 19.4646 15.0714 19.3212 15.0714H7.74979C7.60639 15.0714 7.46712 15.0234 7.35413 14.9351C7.24114 14.8468 7.16092 14.7233 7.12622 14.5841L4.67693 4.78571H3.24979C3.07929 4.78571 2.91578 4.71798 2.79522 4.59743C2.67466 4.47687 2.60693 4.31335 2.60693 4.14286ZM6.64407 7.35714L8.25122 13.7857H18.8198L20.4269 7.35714H6.64407ZM9.0355 17.6429C8.69451 17.6429 8.36748 17.7783 8.12636 18.0194C7.88525 18.2606 7.74979 18.5876 7.74979 18.9286C7.74979 19.2696 7.88525 19.5966 8.12636 19.8377C8.36748 20.0788 8.69451 20.2143 9.0355 20.2143C9.37649 20.2143 9.70352 20.0788 9.94464 19.8377C10.1858 19.5966 10.3212 19.2696 10.3212 18.9286C10.3212 18.5876 10.1858 18.2606 9.94464 18.0194C9.70352 17.7783 9.37649 17.6429 9.0355 17.6429ZM6.46407 18.9286C6.46407 18.2466 6.73499 17.5925 7.21723 17.1103C7.69946 16.6281 8.35352 16.3571 9.0355 16.3571C9.71749 16.3571 10.3715 16.6281 10.8538 17.1103C11.336 17.5925 11.6069 18.2466 11.6069 18.9286C11.6069 19.6106 11.336 20.2646 10.8538 20.7468C10.3715 21.2291 9.71749 21.5 9.0355 21.5C8.35352 21.5 7.69946 21.2291 7.21723 20.7468C6.73499 20.2646 6.46407 19.6106 6.46407 18.9286ZM18.0355 17.6429C17.6945 17.6429 17.3675 17.7783 17.1263 18.0194C16.8852 18.2606 16.7498 18.5876 16.7498 18.9286C16.7498 19.2696 16.8852 19.5966 17.1263 19.8377C17.3675 20.0788 17.6945 20.2143 18.0355 20.2143C18.3765 20.2143 18.7035 20.0788 18.9446 19.8377C19.1857 19.5966 19.3212 19.2696 19.3212 18.9286C19.3212 18.5876 19.1857 18.2606 18.9446 18.0194C18.7035 17.7783 18.3765 17.6429 18.0355 17.6429ZM15.464 18.9286C15.464 18.2466 15.735 17.5925 16.2172 17.1103C16.6994 16.6281 17.3535 16.3571 18.0355 16.3571C18.7175 16.3571 19.3715 16.6281 19.8537 17.1103C20.336 17.5925 20.6069 18.2466 20.6069 18.9286C20.6069 19.6106 20.336 20.2646 19.8537 20.7468C19.3715 21.2291 18.7175 21.5 18.0355 21.5C17.3535 21.5 16.6994 21.2291 16.2172 20.7468C15.735 20.2646 15.464 19.6106 15.464 18.9286Z" fill="#363636"/>
</svg>
