<svg width="16" height="28" viewBox="0 0 16 28" fill="none" xmlns="http://www.w3.org/2000/svg">
<path fill-rule="evenodd" clip-rule="evenodd" d="M13.8313 14.0549H13.7875L14.2508 4.1568C14.2637 3.88048 14.2737 3.66791 14.2814 3.5034C14.3052 2.99892 14.3076 2.94653 14.3079 2.89413L14.3079 2.86891C14.3079 1.28696 13.0199 0 11.4368 0H4.56326C2.98011 0 1.69211 1.28696 1.69211 2.86891L1.69202 2.88951C1.69183 2.93734 1.69408 2.98519 1.74879 4.15013C1.76764 4.55162 1.79273 5.0858 1.82609 5.79841L2.21263 14.0549H2.16882C1.39986 14.0549 0.774292 14.6805 0.774292 15.4494V17.4832C0.774292 18.2521 1.39986 18.8777 2.16882 18.8777H2.45106V23.3894V26.8478C2.45106 27.4831 2.96797 28 3.60327 28C4.20511 28 4.70993 27.5297 4.75264 26.9294L5.32505 18.8777H10.6752L11.2477 26.9295C11.2902 27.5297 11.7951 28 12.3969 28C13.0322 28 13.5491 27.4831 13.5491 26.8478V18.8777H13.8313C14.6003 18.8777 15.2258 18.2521 15.2258 17.4832V15.4494C15.2258 14.6805 14.6003 14.0549 13.8313 14.0549ZM3.27138 26.8478V23.3894V18.8777H4.50266L3.93441 26.8713C3.9221 27.0442 3.77669 27.1797 3.60327 27.1797C3.42023 27.1797 3.27138 27.0308 3.27138 26.8478ZM13.4314 4.1185L12.9663 14.0549H3.03376L2.64542 5.76007C2.61134 5.03193 2.58596 4.49099 2.56706 4.0883C2.5137 2.9509 2.51208 2.91647 2.5123 2.88205L2.51237 2.86891C2.51237 1.73934 3.43237 0.820312 4.5632 0.820312H11.4368C12.5676 0.820312 13.4876 1.73934 13.4876 2.86891L13.4876 2.88553C13.4875 2.92224 13.4858 2.95894 13.4622 3.46086C13.4545 3.62493 13.4445 3.83871 13.4314 4.11846L13.4314 4.1185ZM12.7288 26.8478C12.7288 27.0308 12.5798 27.1797 12.3969 27.1797C12.2235 27.1797 12.078 27.0442 12.0657 26.8713L11.4975 18.8777H12.7288V26.8478ZM13.8313 18.0574C14.148 18.0574 14.4055 17.7998 14.4055 17.4832V15.4494C14.4055 15.1328 14.148 14.8752 13.8313 14.8752H2.16871C1.85207 14.8752 1.59449 15.1328 1.59449 15.4494V17.4832C1.59449 17.7998 1.85207 18.0574 2.16871 18.0574H13.8313Z" fill="#363636"/>
</svg>
