<svg width="87" height="82" viewBox="0 0 87 82" fill="none" xmlns="http://www.w3.org/2000/svg">
<path d="M78.6998 50.533L79.5424 42.7654C79.9866 38.6196 80.2842 35.8861 80.0507 34.164H80.1331C81.7005 34.1636 83.2206 33.6299 84.4411 32.6514C85.6615 31.673 86.5089 30.3086 86.8426 28.785C87.1762 27.2613 86.976 25.6699 86.2753 24.275C85.5745 22.8802 84.4153 21.7657 82.9901 21.1166C81.565 20.4676 79.9595 20.323 78.4404 20.7069C76.9212 21.0908 75.5797 21.9801 74.6386 23.2271C73.6974 24.4741 73.2133 26.0039 73.2665 27.5624C73.3198 29.1209 73.9072 30.6144 74.9312 31.795C73.4384 32.7107 71.4877 34.6469 68.5525 37.5581C66.2858 39.8041 65.1547 40.9248 63.8909 41.098C63.1906 41.1941 62.4771 41.0947 61.8303 40.8109C60.6672 40.3007 59.8887 38.9157 58.3364 36.1412L50.1397 21.5217C49.1827 19.8132 48.3814 18.3781 47.6579 17.2301C49.4907 16.3009 50.9558 14.7849 51.8171 12.9262C52.6783 11.0676 52.8855 8.97459 52.4052 6.9845C51.925 4.99442 50.7853 3.22315 49.1698 1.95609C47.5543 0.68904 45.5571 0 43.5 0C41.4429 0 39.4457 0.68904 37.8302 1.95609C36.2147 3.22315 35.075 4.99442 34.5948 6.9845C34.1146 8.97459 34.3217 11.0676 35.1829 12.9262C36.0442 14.7849 37.5093 16.3009 39.3421 17.2301C38.6186 18.3827 37.8173 19.8132 36.8557 21.5217L28.6636 36.1412C27.1067 38.9157 26.3282 40.3007 25.1651 40.8109C24.5183 41.0947 23.8049 41.1941 23.1045 41.098C21.8453 40.9248 20.7142 39.8041 18.4475 37.5581C15.5123 34.6469 13.5616 32.7107 12.0688 31.795C13.0928 30.6144 13.6802 29.1209 13.7335 27.5624C13.7867 26.0039 13.3025 24.4741 12.3614 23.2271C11.4203 21.9801 10.0788 21.0908 8.55964 20.7069C7.04048 20.323 5.43505 20.4676 4.00986 21.1166C2.58468 21.7657 1.42548 22.8802 0.724722 24.275C0.0239589 25.6699 -0.176216 27.2613 0.157429 28.785C0.491075 30.3086 1.33847 31.673 2.55893 32.6514C3.7794 33.6299 5.29951 34.1636 6.86691 34.164H6.94933C6.7158 35.8861 7.01344 38.6241 7.45762 42.7654L8.30018 50.533C8.76725 54.8428 9.1519 58.9476 9.62813 62.6378H77.3719C77.8481 58.9476 78.2328 54.8474 78.6998 50.533ZM38.5179 82H48.4821C61.4685 82 67.9618 82 72.2936 78.1412C74.1848 76.4556 75.3799 73.4214 76.2454 69.4715H10.7546C11.6201 73.4214 12.8152 76.4601 14.7064 78.1412C19.0383 82 25.5315 82 38.5179 82Z" fill="#C07701"/>
</svg>
