<svg width="20" height="20" viewBox="0 0 20 20" fill="none" xmlns="http://www.w3.org/2000/svg">
<path fill-rule="evenodd" clip-rule="evenodd" d="M2 9.5C2.66297 9.85066 2.66286 9.85088 2.66276 9.85107L2.66308 9.85047L2.66737 9.84255C2.67161 9.83475 2.67861 9.82198 2.68835 9.80457C2.70785 9.76975 2.73828 9.7164 2.77947 9.64719C2.80515 9.60403 2.83498 9.55475 2.86891 9.5C2.94388 9.62097 3.03886 9.76869 3.15336 9.93629C3.48692 10.4245 3.98131 11.0744 4.62344 11.7219C5.9185 13.0277 7.73795 14.25 10 14.25C12.2621 14.25 14.0815 13.0277 15.3766 11.7219C16.0187 11.0744 16.5131 10.4245 16.8466 9.93629C16.9612 9.76869 17.0561 9.62097 17.1311 9.5C17.165 9.55475 17.1948 9.60403 17.2205 9.64719C17.2617 9.7164 17.2921 9.76975 17.3116 9.80457C17.3214 9.82198 17.3284 9.83475 17.3326 9.84255L17.3369 9.85047L17.3372 9.85104C17.3378 9.85047 17.3593 9.83888 18 9.5C18.663 9.85066 18.6628 9.85092 18.6627 9.8512L18.6623 9.85185L18.6614 9.85355L18.6588 9.85844L18.6504 9.8741C18.6433 9.88712 18.6333 9.90524 18.6205 9.92811C18.5949 9.97385 18.5579 10.0387 18.5096 10.1199C18.413 10.2821 18.2711 10.5103 18.0852 10.7825C17.7142 11.3255 17.1631 12.0506 16.4416 12.7781C15.0094 14.2223 12.8289 15.75 10 15.75C7.17114 15.75 4.99059 14.2223 3.55838 12.7781C2.83688 12.0506 2.28581 11.3255 1.91482 10.7825C1.72887 10.5103 1.58697 10.2821 1.49042 10.1199C1.44211 10.0387 1.40508 9.97385 1.37947 9.92811C1.36667 9.90524 1.35672 9.88712 1.34964 9.8741L1.34117 9.85844L1.33856 9.85355L1.33766 9.85185L1.33731 9.8512C1.33716 9.85092 1.33703 9.85066 1.99995 9.50002L1.33703 9.85066C1.22099 9.63129 1.22099 9.36871 1.33703 9.14934L1.99983 9.49991C1.33703 9.14934 1.33716 9.14908 1.33731 9.1488L1.33766 9.14815L1.33856 9.14645L1.34117 9.14156L1.34964 9.1259C1.35672 9.11288 1.36667 9.09476 1.37947 9.07189C1.40508 9.02615 1.44211 8.96133 1.49042 8.88015C1.58697 8.71789 1.72887 8.48971 1.91482 8.21754C2.28581 7.67452 2.83688 6.94939 3.55838 6.22187C4.99059 4.77774 7.17114 3.25 10 3.25C12.8289 3.25 15.0094 4.77774 16.4416 6.22187C17.1631 6.94939 17.7142 7.67452 18.0852 8.21754C18.2711 8.48971 18.413 8.71789 18.5096 8.88015C18.5579 8.96133 18.5949 9.02615 18.6205 9.07189C18.6333 9.09476 18.6433 9.11288 18.6504 9.1259L18.6588 9.14156L18.6614 9.14645L18.6623 9.14815L18.6627 9.1488C18.6628 9.14908 18.663 9.14934 18 9.5C17.337 9.14934 17.3371 9.14912 17.3372 9.14893L17.3369 9.14953L17.3326 9.15745C17.3284 9.16525 17.3214 9.17802 17.3116 9.19543C17.2921 9.23025 17.2617 9.2836 17.2205 9.35281C17.1948 9.39597 17.165 9.44525 17.1311 9.5C17.0561 9.37903 16.9612 9.23131 16.8466 9.06371C16.5131 8.57548 16.0187 7.92561 15.3766 7.27813C14.0815 5.97226 12.2621 4.75 10 4.75C7.73795 4.75 5.9185 5.97226 4.62344 7.27813C3.98131 7.92561 3.48692 8.57548 3.15336 9.06371C3.03886 9.23131 2.94388 9.37903 2.86891 9.5C2.83498 9.44525 2.80515 9.39597 2.77947 9.35281C2.73828 9.2836 2.70785 9.23025 2.68835 9.19543C2.67861 9.17802 2.67161 9.16525 2.66737 9.15745L2.66308 9.14953L2.66276 9.14893C2.66286 9.14912 2.66297 9.14934 2 9.5ZM18 9.5L18.663 9.85066C18.779 9.63129 18.779 9.36871 18.663 9.14934L18 9.5Z" fill="#C07701"/>
<path fill-rule="evenodd" clip-rule="evenodd" d="M8.75 9.5C8.75 8.36868 9.45717 7.75 10 7.75C10.5428 7.75 11.25 8.36868 11.25 9.5C11.25 10.6313 10.5428 11.25 10 11.25C9.45717 11.25 8.75 10.6313 8.75 9.5ZM12.75 9.5C12.75 11.1301 11.6663 12.75 10 12.75C8.33369 12.75 7.25 11.1301 7.25 9.5C7.25 7.8699 8.33369 6.25 10 6.25C11.6663 6.25 12.75 7.8699 12.75 9.5Z" fill="#C07701"/>
</svg>
