<svg width="20" height="17" viewBox="0 0 20 17" fill="none" xmlns="http://www.w3.org/2000/svg">
<path fill-rule="evenodd" clip-rule="evenodd" d="M14.773 2.22703C13.5071 0.961159 11.7902 0.25 10 0.25C8.20979 0.25 6.4929 0.961159 5.22703 2.22703C3.96116 3.4929 3.25 5.20979 3.25 7C3.25 10.3895 2.5247 12.5135 1.84158 13.7659C1.49898 14.394 1.16292 14.8104 0.924283 15.0623C0.80477 15.1885 0.709185 15.2739 0.648765 15.3242C0.618545 15.3494 0.597098 15.3658 0.58583 15.3742L0.578248 15.3798L0.580575 15.3782L0.582138 15.3772L0.583021 15.3766L0.583084 15.3766L0.577065 15.3807C0.306932 15.565 0.18721 15.9037 0.282178 16.2173C0.377952 16.5337 0.669497 16.75 0.999997 16.75H19C19.3305 16.75 19.622 16.5337 19.7178 16.2173C19.8136 15.901 19.691 15.5593 19.416 15.376L19 16V15.25H17.3102C17.1567 15.0265 16.9987 14.7721 16.8416 14.4841C16.0247 12.9865 15.25 10.6105 15.25 7C15.25 5.60761 14.6969 4.27226 13.7123 3.28769C12.7277 2.30312 11.3924 1.75 10 1.75C8.60761 1.75 7.27226 2.30312 6.28769 3.28769C5.30312 4.27226 4.75 5.60761 4.75 7C4.75 10.6105 3.9753 12.9865 3.15842 14.4841C3.00134 14.7721 2.84329 15.0265 2.6898 15.25H0.999997V16C1.41602 16.624 1.41653 16.6237 1.41704 16.6234L1.41813 16.6226L1.42051 16.621L1.4261 16.6172L1.44047 16.6072C1.45145 16.5995 1.46521 16.5896 1.48155 16.5774C1.51422 16.5531 1.55723 16.5197 1.60904 16.4766C1.71268 16.3902 1.85147 16.2647 2.01321 16.0939C2.2122 15.8839 2.4452 15.6062 2.6898 15.25H17.3102C17.5548 15.6062 17.7878 15.8839 17.9868 16.0939C18.1485 16.2647 18.2873 16.3902 18.391 16.4766C18.4428 16.5197 18.4858 16.5531 18.5184 16.5774C18.5348 16.5896 18.5485 16.5995 18.5595 16.6072L18.5739 16.6172L18.5795 16.621L18.5819 16.6226L18.583 16.6234C18.5835 16.6237 18.584 16.624 19 16C19.416 15.376 19.4165 15.3763 19.417 15.3766L19.4179 15.3772L19.4194 15.3782L19.4217 15.3798C19.4229 15.3806 19.4234 15.381 19.4233 15.3809L19.4142 15.3742C19.4029 15.3658 19.3815 15.3494 19.3512 15.3242C19.2908 15.2739 19.1952 15.1885 19.0757 15.0623C18.8371 14.8104 18.501 14.394 18.1584 13.7659C17.4753 12.5135 16.75 10.3895 16.75 7C16.75 5.20979 16.0388 3.4929 14.773 2.22703ZM0.583084 15.3766L0.583972 15.376L0.998854 15.9983C0.597847 15.3968 0.583987 15.377 0.583084 15.3766Z" fill="#363636"/>
</svg>
