<svg width="316" height="64" viewBox="0 0 316 64" fill="none" xmlns="http://www.w3.org/2000/svg">
<rect y="31.5" width="105" height="1" rx="0.5" fill="#BDBDBD"/>
<path fill-rule="evenodd" clip-rule="evenodd" d="M190.003 32.0014C190.003 49.6461 175.649 64 158.001 64C140.357 64 126.003 49.6461 126 32.0014C126 14.3538 140.354 0 158.001 0C175.649 0 190.003 14.3538 190.003 32.0014ZM189.424 32.0014C189.424 14.6763 175.327 0.579406 158.001 0.579406C140.676 0.579406 126.582 14.6763 126.582 32.0014C126.582 49.3265 140.679 63.4206 158.004 63.4206C175.329 63.4206 189.424 49.3265 189.424 32.0014Z" fill="#303030"/>
<path d="M144.807 43.6035L160.012 44.9535C160.025 43.7272 160.109 39.4773 160.717 37.5432C161.409 35.3354 167.691 36.138 169.288 36.3801C170.183 31.8802 171.701 29.0303 171.767 28.9092C171.846 28.7619 172.03 28.7066 172.177 28.7856C172.325 28.8645 172.38 29.0487 172.301 29.1961C172.285 29.225 170.696 32.2144 169.827 36.7801C169.796 36.9406 169.64 37.0485 169.48 37.0222C166.551 36.538 161.741 36.2985 161.296 37.7221C160.625 39.859 160.617 45.2298 160.617 45.2825C160.617 45.3666 160.58 45.4483 160.52 45.5061C160.464 45.5561 160.391 45.5851 160.314 45.5851C160.307 45.5851 160.296 45.5851 160.288 45.5851L144.757 44.2062C144.591 44.1904 144.468 44.043 144.483 43.8772C144.491 43.7115 144.641 43.5904 144.807 43.6035Z" fill="#303030"/>
<path fill-rule="evenodd" clip-rule="evenodd" d="M142.976 35.4407C142.473 35.5275 142.105 35.767 141.878 36.1538C141.376 37.0143 141.812 38.2853 141.836 38.3379L141.837 38.3388C141.842 38.3517 141.847 38.3645 141.855 38.3774L142.468 39.5432V50.2402C142.468 50.3692 142.549 50.4745 142.662 50.5192V50.856C142.662 50.9613 142.741 51.0507 142.847 51.0639L144.191 51.2218C144.315 51.2349 144.423 51.1376 144.423 51.0139V50.7297L160.338 52.4875V53.0112C160.338 53.1323 160.425 53.2375 160.544 53.2586L162.109 53.5507C162.149 53.5586 162.191 53.556 162.23 53.5428L164.301 52.9034C164.409 52.8692 164.48 52.7718 164.48 52.6612V52.1165L171.02 50.4719V50.8902C171.02 51.0507 171.17 51.1666 171.325 51.1271L172.827 50.735C172.935 50.706 173.009 50.6086 173.009 50.4982V49.9718L173.083 49.9534C173.206 49.9218 173.298 49.8165 173.309 49.6877L175.196 29.4751C175.256 28.8409 174.996 28.2277 174.501 27.8277C174.017 27.4356 173.375 27.312 172.783 27.4909C169.858 27.8348 168.592 27.8906 166.689 27.9745L166.675 27.9751L166.645 27.9764C166.066 28.0024 165.428 28.031 164.664 28.0698C163.172 28.1462 161.841 27.9751 160.667 27.8225L160.655 27.8208C159.213 27.6347 157.964 27.4735 156.846 27.8225C154.453 28.5667 155.29 31.4972 155.693 32.9089L155.694 32.9118C156.081 34.267 155.859 35.7933 155.746 36.3907C153.97 36.1933 144.557 35.167 142.976 35.4407ZM143.034 39.3326L142.397 38.1196C142.294 37.8064 142.107 36.9591 142.397 36.467C142.531 36.2406 142.752 36.1012 143.073 36.0459C144.376 35.8196 152.062 36.5933 155.946 37.0327C156.102 37.0512 156.238 36.9538 156.275 36.8064L156.276 36.8051C156.301 36.701 156.804 34.6218 156.273 32.7565C155.712 30.7961 155.415 28.9119 157.023 28.4119C158.017 28.1014 159.207 28.254 160.586 28.433C161.786 28.5882 163.146 28.7619 164.693 28.683C165.435 28.6452 166.06 28.617 166.625 28.5916L166.699 28.5882L166.757 28.5856C168.653 28.5003 169.934 28.4426 172.877 28.0962C172.898 28.0935 172.917 28.0883 172.935 28.083C173.354 27.9514 173.783 28.033 174.119 28.304C174.456 28.5751 174.633 28.9935 174.593 29.4224L172.725 49.4219L162.478 51.9981L162.817 39.6774C162.822 39.5117 162.691 39.3722 162.522 39.3669C162.357 39.359 162.217 39.4931 162.212 39.6617L161.87 52.0533L143.068 49.9771V39.4747C143.068 39.4248 143.057 39.3774 143.034 39.3326Z" fill="#303030"/>
<path d="M146.639 34.9012C146.807 34.9012 146.941 34.7644 146.941 34.5986V21.8253C146.941 21.6568 146.804 21.5226 146.639 21.5226C146.47 21.5226 146.336 21.6595 146.336 21.8253V34.5986C146.336 34.767 146.473 34.9012 146.639 34.9012Z" fill="#303030"/>
<path d="M141.102 21.1753H152.178C152.275 21.1753 152.367 21.128 152.425 21.0463C152.483 20.9675 152.496 20.8648 152.465 20.77L148.918 10.6467C148.875 10.5256 148.76 10.444 148.631 10.444L144.649 10.444C144.52 10.444 144.407 10.5256 144.362 10.6467L140.815 20.77C140.784 20.8622 140.797 20.9648 140.855 21.0463C140.913 21.128 141.005 21.1753 141.102 21.1753Z" fill="#303030"/>
<path d="M145.268 23.7936C145.436 23.7936 145.57 23.6568 145.57 23.491V21.8253C145.57 21.6568 145.433 21.5226 145.268 21.5226C145.099 21.5226 144.965 21.6595 144.965 21.8253V23.491C144.965 23.6568 145.099 23.7936 145.268 23.7936Z" fill="#303030"/>
<path d="M149.107 23.3726C149.96 23.3726 150.654 22.6779 150.654 21.8253C150.654 21.6568 150.517 21.5226 150.352 21.5226C150.183 21.5226 150.049 21.6595 150.049 21.8253C150.049 22.3437 149.625 22.7673 149.107 22.7673C148.589 22.7673 148.165 22.3437 148.165 21.8253C148.165 21.6568 148.028 21.5226 147.862 21.5226C147.694 21.5226 147.56 21.6595 147.56 21.8253C147.56 22.6779 148.254 23.3726 149.107 23.3726Z" fill="#303030"/>
<rect x="211.003" y="31.5" width="105" height="1" rx="0.5" fill="#BDBDBD"/>
</svg>
