<svg width="20" height="20" viewBox="0 0 20 20" fill="none" xmlns="http://www.w3.org/2000/svg">
<path fill-rule="evenodd" clip-rule="evenodd" d="M16.6667 4.06063L17.9687 16.3106C17.988 16.4061 18 16.5043 18 16.6061C18 17.3762 17.4033 18 16.6667 18H10H3.33333C2.59667 18 2 17.3762 2 16.6061C2 16.5043 2.012 16.4061 2.03133 16.3106L3.33333 4.06063C3.33333 3.29048 3.93 2.66669 4.66667 2.66669H10H15.3333C16.07 2.66669 16.6667 3.29048 16.6667 4.06063ZM13.3333 6.84851V6.08742C13.7207 5.94384 14 5.56051 14 5.10608C14 4.52899 13.552 4.06063 13 4.06063C12.448 4.06063 12 4.52899 12 5.10608V6.84851C12 8.0013 11.1027 8.93942 10 8.93942C8.89733 8.93942 8 8.0013 8 6.84851V5.10608C8 4.52899 7.552 4.06063 7 4.06063C6.448 4.06063 6 4.52899 6 5.10608C6 5.56051 6.27933 5.94384 6.66667 6.08742V6.84851C6.66667 8.77005 8.162 10.3334 10 10.3334C11.838 10.3334 13.3333 8.77005 13.3333 6.84851Z" fill="#C07701"/>
</svg>
