<svg width="28" height="22" viewBox="0 0 28 22" fill="none" xmlns="http://www.w3.org/2000/svg">
<path fill-rule="evenodd" clip-rule="evenodd" d="M0.4375 0.9375H27.5625C27.8041 0.9375 28 1.13339 28 1.375V4C28 4.24161 27.8041 4.4375 27.5625 4.4375H26.25V20.625C26.25 20.8666 26.0541 21.0625 25.8125 21.0625H24.0625C23.8209 21.0625 23.625 20.8666 23.625 20.625V4.4375H4.375V20.625C4.375 20.8666 4.17911 21.0625 3.9375 21.0625H2.1875C1.94589 21.0625 1.75 20.8666 1.75 20.625V4.4375H0.4375C0.195891 4.4375 0 4.24161 0 4V1.375C0 1.13339 0.195891 0.9375 0.4375 0.9375ZM25.8125 3.5625H27.125V1.8125H0.875V3.5625H2.1875C2.42911 3.5625 2.625 3.75839 2.625 4V20.1875H3.5V4C3.5 3.75839 3.69589 3.5625 3.9375 3.5625H24.0625C24.3041 3.5625 24.5 3.75839 24.5 4V20.1875H25.375V4C25.375 3.75839 25.5709 3.5625 25.8125 3.5625Z" fill="#363636"/>
</svg>
